<svg width="23" height="9" viewBox="0 0 23 9" fill="none" xmlns="http://www.w3.org/2000/svg">
<path fill-rule="evenodd" clip-rule="evenodd" d="M18.7749 0.646448C18.5854 0.841712 18.5854 1.1583 18.7749 1.35356L21.3432 4H0.485232C0.217246 4 0 4.22386 0 4.5C0 4.77615 0.217246 5.00001 0.485232 5.00001H21.3432L18.7749 7.64651C18.5854 7.84177 18.5854 8.15835 18.7749 8.35362C18.9644 8.54888 19.2717 8.54888 19.4612 8.35362L22.8529 4.85862C22.9436 4.76777 23 4.64067 23 4.5C23 4.35847 22.9429 4.23067 22.8512 4.1397L19.4612 0.646448C19.2717 0.451184 18.9644 0.451184 18.7749 0.646448Z" fill="#006CB7"/>
</svg>
