<svg width="16" height="16" viewBox="0 0 16 16" fill="none" xmlns="http://www.w3.org/2000/svg">
<path fill-rule="evenodd" clip-rule="evenodd" d="M8 2C13.0104 2 15.8163 7.46667 15.9499 7.73333C16.0167 7.86667 16.0167 8.13333 15.9499 8.26667C15.8163 8.53333 13.0104 14 8 14C3.28391 14 0.520995 9.15677 0.101225 8.42093C0.0750254 8.37501 0.0579537 8.34508 0.0501044 8.33333C-0.0167015 8.13333 -0.0167015 7.93333 0.0501044 7.73333C0.183716 7.46667 2.98956 2 8 2ZM1.38622 8C2.05428 9.06667 4.39248 12.6667 8 12.6667C11.6075 12.6667 13.9457 9.06667 14.6138 8C13.9457 6.93333 11.6075 3.33333 8 3.33333C4.39248 3.33333 1.98747 6.93333 1.38622 8ZM8 5.33333C6.53027 5.33333 5.32777 6.53333 5.32777 8C5.32777 9.46667 6.53027 10.6667 8 10.6667C9.46973 10.6667 10.6722 9.46667 10.6722 8C10.6722 6.53333 9.46973 5.33333 8 5.33333ZM6.66388 8C6.66388 8.73333 7.26514 9.33333 8 9.33333C8.73486 9.33333 9.33612 8.73333 9.33612 8C9.33612 7.26667 8.73486 6.66667 8 6.66667C7.26514 6.66667 6.66388 7.26667 6.66388 8Z" fill="#8C999B"/>
<mask id="mask0_1659_1744" style="mask-type:alpha" maskUnits="userSpaceOnUse" x="0" y="2" width="16" height="12">
<path fill-rule="evenodd" clip-rule="evenodd" d="M8 2C13.0104 2 15.8163 7.46667 15.9499 7.73333C16.0167 7.86667 16.0167 8.13333 15.9499 8.26667C15.8163 8.53333 13.0104 14 8 14C3.28391 14 0.520995 9.15677 0.101225 8.42093C0.0750254 8.37501 0.0579537 8.34508 0.0501044 8.33333C-0.0167015 8.13333 -0.0167015 7.93333 0.0501044 7.73333C0.183716 7.46667 2.98956 2 8 2ZM1.38622 8C2.05428 9.06667 4.39248 12.6667 8 12.6667C11.6075 12.6667 13.9457 9.06667 14.6138 8C13.9457 6.93333 11.6075 3.33333 8 3.33333C4.39248 3.33333 1.98747 6.93333 1.38622 8ZM8 5.33333C6.53027 5.33333 5.32777 6.53333 5.32777 8C5.32777 9.46667 6.53027 10.6667 8 10.6667C9.46973 10.6667 10.6722 9.46667 10.6722 8C10.6722 6.53333 9.46973 5.33333 8 5.33333ZM6.66388 8C6.66388 8.73333 7.26514 9.33333 8 9.33333C8.73486 9.33333 9.33612 8.73333 9.33612 8C9.33612 7.26667 8.73486 6.66667 8 6.66667C7.26514 6.66667 6.66388 7.26667 6.66388 8Z" fill="white"/>
</mask>
<g mask="url(#mask0_1659_1744)">
<rect width="16" height="16" fill="#8C999B"/>
</g>
</svg>
