<svg width="16" height="16" viewBox="0 0 16 16" fill="none" xmlns="http://www.w3.org/2000/svg">
<mask id="mask0_1623_110216" style="mask-type:alpha" maskUnits="userSpaceOnUse" x="0" y="0" width="16" height="16">
<path fill-rule="evenodd" clip-rule="evenodd" d="M12.666 5.33464H13.3327C14.466 5.33464 15.3327 6.2013 15.3327 7.33463V10.668C15.3327 11.8013 14.466 12.668 13.3327 12.668H12.666V14.668C12.666 15.068 12.3993 15.3346 11.9993 15.3346H3.99935C3.59935 15.3346 3.33268 15.068 3.33268 14.668V12.668H2.66602C1.53268 12.668 0.666016 11.8013 0.666016 10.668V7.33463C0.666016 6.2013 1.53268 5.33464 2.66602 5.33464H3.33268V1.33464C3.33268 0.934635 3.59935 0.667969 3.99935 0.667969H11.9993C12.3993 0.667969 12.666 0.934635 12.666 1.33464V5.33464ZM11.3327 2.0013H4.66602V5.33464H11.3327V2.0013ZM11.3327 14.0013H4.66602V10.0013H11.3327V14.0013ZM13.3327 11.3346C13.7327 11.3346 13.9993 11.068 13.9993 10.668V7.33464C13.9993 6.93464 13.7327 6.66797 13.3327 6.66797H2.66602C2.26602 6.66797 1.99935 6.93464 1.99935 7.33464V10.668C1.99935 11.068 2.26602 11.3346 2.66602 11.3346H3.33268V9.33463C3.33268 8.93464 3.59935 8.66797 3.99935 8.66797H11.9993C12.3993 8.66797 12.666 8.93464 12.666 9.33463V11.3346H13.3327Z" fill="white"/>
</mask>
<g mask="url(#mask0_1623_110216)">
<rect width="16" height="16" fill="#8C999B"/>
</g>
</svg>
