<svg width="16" height="16" viewBox="0 0 16 16" fill="none" xmlns="http://www.w3.org/2000/svg">
<mask id="mask0_1623_110217" style="mask-type:alpha" maskUnits="userSpaceOnUse" x="1" y="0" width="14" height="16">
<path fill-rule="evenodd" clip-rule="evenodd" d="M10.134 10.8013C10.6007 10.3346 11.2673 10.0013 12.0007 10.0013C13.4673 10.0013 14.6673 11.2013 14.6673 12.668C14.6673 14.1346 13.4673 15.3346 12.0007 15.3346C10.534 15.3346 9.33398 14.1346 9.33398 12.668C9.33398 12.5346 9.35065 12.418 9.36732 12.3013C9.38398 12.1846 9.40065 12.068 9.40065 11.9346L5.86732 9.86797C5.40065 10.3346 4.73398 10.668 4.00065 10.668C2.53398 10.668 1.33398 9.46797 1.33398 8.0013C1.33398 6.53464 2.53398 5.33464 4.00065 5.33464C4.73398 5.33464 5.40065 5.66797 5.86732 6.13463L9.46732 4.06797C9.45588 4.02222 9.44444 3.97843 9.43334 3.93592C9.37974 3.73071 9.33398 3.55555 9.33398 3.33464C9.33398 1.86797 10.534 0.667969 12.0007 0.667969C13.4673 0.667969 14.6673 1.86797 14.6673 3.33464C14.6673 4.8013 13.4673 6.0013 12.0007 6.0013C11.2673 6.0013 10.6007 5.66797 10.0673 5.2013L6.53398 7.26797C6.54542 7.31372 6.55686 7.35751 6.56796 7.40001C6.62156 7.60523 6.66732 7.78039 6.66732 8.0013C6.66732 8.13463 6.65065 8.2513 6.63399 8.36797C6.61732 8.48463 6.60065 8.6013 6.60065 8.73464L10.134 10.8013ZM13.334 3.33464C13.334 2.6013 12.734 2.0013 12.0007 2.0013C11.2673 2.0013 10.6673 2.6013 10.6673 3.33464C10.6673 4.06797 11.2673 4.66797 12.0007 4.66797C12.734 4.66797 13.334 4.06797 13.334 3.33464ZM4.00065 9.33463C3.26732 9.33463 2.66732 8.73464 2.66732 8.0013C2.66732 7.26797 3.26732 6.66797 4.00065 6.66797C4.73398 6.66797 5.33398 7.26797 5.33398 8.0013C5.33398 8.73464 4.73398 9.33463 4.00065 9.33463ZM10.6673 12.668C10.6673 13.4013 11.2673 14.0013 12.0007 14.0013C12.734 14.0013 13.334 13.4013 13.334 12.668C13.334 11.9346 12.734 11.3346 12.0007 11.3346C11.534 11.3346 11.0673 11.6013 10.8673 12.0013C10.734 12.2013 10.6673 12.4013 10.6673 12.668Z" fill="white"/>
</mask>
<g mask="url(#mask0_1623_110217)">
<rect width="16" height="16" fill="#8C999B"/>
</g>
</svg>
