<svg width="16" height="16" viewBox="0 0 16 16" fill="none" xmlns="http://www.w3.org/2000/svg">
<mask id="mask0_1380_95713" style="mask-type:alpha" maskUnits="userSpaceOnUse" x="2" y="1" width="12" height="14">
<path fill-rule="evenodd" clip-rule="evenodd" d="M4.66667 4.66732C4.66667 2.80065 6.13333 1.33398 8 1.33398C9.86667 1.33398 11.3333 2.80065 11.3333 4.66732C11.3333 6.53398 9.86667 8.00065 8 8.00065C6.13333 8.00065 4.66667 6.53398 4.66667 4.66732ZM14 12.6673V14.0007C14 14.4007 13.7333 14.6673 13.3333 14.6673C12.9333 14.6673 12.6667 14.4007 12.6667 14.0007V12.6673C12.6667 11.534 11.8 10.6673 10.6667 10.6673H5.33333C4.2 10.6673 3.33333 11.534 3.33333 12.6673V14.0007C3.33333 14.4007 3.06667 14.6673 2.66667 14.6673C2.26667 14.6673 2 14.4007 2 14.0007V12.6673C2 10.8007 3.46667 9.33398 5.33333 9.33398H10.6667C12.5333 9.33398 14 10.8007 14 12.6673ZM8 6.66732C6.86667 6.66732 6 5.80065 6 4.66732C6 3.53398 6.86667 2.66732 8 2.66732C9.13333 2.66732 10 3.53398 10 4.66732C10 5.80065 9.13333 6.66732 8 6.66732Z" fill="white"/>
</mask>
<g mask="url(#mask0_1380_95713)">
<rect width="16" height="16" fill="white"/>
</g>
</svg>
