<svg width="24" height="24" viewBox="0 0 24 24" fill="none" xmlns="http://www.w3.org/2000/svg">
<path d="M12 24C18.6274 24 24 18.6274 24 12C24 5.37258 18.6274 0 12 0C5.37258 0 0 5.37258 0 12C0 18.6274 5.37258 24 12 24Z" fill="url(#paint0_linear_1659_9612)"/>
<path d="M17.8395 6.90425L15.6973 17.7089C15.6973 17.7089 15.3973 18.4589 14.5723 18.098L9.62695 14.3058L7.82695 13.4386L4.79883 12.4214C4.79883 12.4214 4.33476 12.2574 4.28789 11.8964C4.24101 11.5355 4.81289 11.3433 4.81289 11.3433L16.8504 6.623C16.8504 6.61831 17.8395 6.18237 17.8395 6.90425Z" fill="white"/>
<path d="M9.24375 17.5871C9.24375 17.5871 9.09844 17.573 8.92031 17.0058C8.74219 16.4387 7.82812 13.4387 7.82812 13.4387L15.0985 8.82148C15.0985 8.82148 15.5203 8.56836 15.5016 8.82148C15.5016 8.82148 15.5766 8.86836 15.3516 9.07461C15.1266 9.28555 9.64219 14.2168 9.64219 14.2168" fill="#D2E4F0"/>
<path d="M11.5195 15.7594L9.56484 17.5453C9.56484 17.5453 9.41016 17.6625 9.24609 17.5875L9.62109 14.2734" fill="#B5CFE4"/>
<defs>
<linearGradient id="paint0_linear_1659_9612" x1="12" y1="0" x2="12" y2="23.9124" gradientUnits="userSpaceOnUse">
<stop stop-color="#41BCE7"/>
<stop offset="1" stop-color="#22A6DC"/>
</linearGradient>
</defs>
</svg>
