<svg width="24" height="24" viewBox="0 0 24 24" fill="none" xmlns="http://www.w3.org/2000/svg">
<path d="M12 24C18.6274 24 24 18.6274 24 12C24 5.37258 18.6274 0 12 0C5.37258 0 0 5.37258 0 12C0 18.6274 5.37258 24 12 24Z" fill="#4D76A1"/>
<path fill-rule="evenodd" clip-rule="evenodd" d="M11.5452 17.264H12.487C12.487 17.264 12.7715 17.2327 12.9168 17.0761C13.0505 16.9324 13.0462 16.6624 13.0462 16.6624C13.0462 16.6624 13.0278 15.3986 13.6144 15.2125C14.1926 15.0292 14.935 16.434 15.722 16.9741C16.3171 17.3829 16.7693 17.2933 16.7693 17.2933L18.8736 17.264C18.8736 17.264 19.9744 17.1961 19.4524 16.3307C19.4096 16.2599 19.1485 15.6904 17.8879 14.5203C16.5685 13.2957 16.7452 13.4938 18.3345 11.3754C19.3025 10.0853 19.6894 9.29768 19.5686 8.96034C19.4533 8.63905 18.7414 8.72397 18.7414 8.72397L16.3721 8.73873C16.3721 8.73873 16.1965 8.71477 16.0662 8.79263C15.9389 8.869 15.857 9.04698 15.857 9.04698C15.857 9.04698 15.482 10.0453 14.9819 10.8943C13.9269 12.6858 13.505 12.7804 13.3326 12.6691C12.9315 12.4099 13.0317 11.6276 13.0317 11.0719C13.0317 9.33576 13.295 8.61188 12.5189 8.42449C12.2614 8.36225 12.0718 8.32117 11.4132 8.31454C10.5678 8.30577 9.8523 8.31711 9.44715 8.51562C9.17762 8.6476 8.9697 8.94173 9.09633 8.95863C9.25291 8.97959 9.60758 9.05425 9.79561 9.3103C10.0384 9.64058 10.0298 10.3824 10.0298 10.3824C10.0298 10.3824 10.1693 12.4261 9.70405 12.68C9.38469 12.8542 8.94659 12.4986 8.00603 10.8734C7.52408 10.0408 7.16022 9.12056 7.16022 9.12056C7.16022 9.12056 7.09006 8.94858 6.96492 8.85659C6.81304 8.74515 6.60084 8.70964 6.60084 8.70964L4.34942 8.7244C4.34942 8.7244 4.01144 8.73381 3.88738 8.88077C3.777 9.01147 3.87861 9.28185 3.87861 9.28185C3.87861 9.28185 5.64124 13.4056 7.63703 15.4838C9.46704 17.3891 11.5452 17.264 11.5452 17.264Z" fill="white"/>
</svg>
