<svg width="24" height="24" viewBox="0 0 24 24" fill="none" xmlns="http://www.w3.org/2000/svg">
<g clip-path="url(#clip0_1659_9608)">
<path d="M25.4148 2.37229C25.0928 0.651187 24.1442 -0.704056 22.9394 -1.16398C20.7556 -2 11.9999 -2 11.9999 -2C11.9999 -2 3.24415 -2 1.06031 -1.16398C-0.14418 -0.704056 -1.09306 0.651187 -1.41506 2.37229C-2 5.49168 -2 12.0002 -2 12.0002C-2 12.0002 -2 18.5086 -1.41506 21.6277C-1.09306 23.3488 -0.14418 24.7044 1.06031 25.1643C3.24415 26 11.9999 26 11.9999 26C11.9999 26 20.7556 26 22.9394 25.1643C24.1442 24.7044 25.0928 23.3488 25.4148 21.6277C26 18.5086 26 12.0002 26 12.0002C26 12.0002 26 5.49168 25.4148 2.37229Z" fill="#ED1F24"/>
<path d="M9.59766 15.5966L15.8329 11.9965L9.59766 8.39648V15.5966Z" fill="white"/>
</g>
<defs>
<clipPath id="clip0_1659_9608">
<path d="M0 12C0 5.37258 5.37258 0 12 0C18.6274 0 24 5.37258 24 12C24 18.6274 18.6274 24 12 24C5.37258 24 0 18.6274 0 12Z" fill="white"/>
</clipPath>
</defs>
</svg>
