<svg width="47" height="16" viewBox="0 0 47 16" fill="none" xmlns="http://www.w3.org/2000/svg">
<path fill-rule="evenodd" clip-rule="evenodd" d="M8.63388 15.7114C9.02111 15.3267 9.02111 14.7029 8.63388 14.3181L3.38569 9.1035L46.0084 9.1035C46.5561 9.1035 47 8.6624 47 8.11827C47 7.57414 46.5561 7.13304 46.0084 7.13304L3.38544 7.13303L8.63388 1.91818C9.02112 1.53342 9.02112 0.909608 8.63388 0.524851C8.24664 0.140093 7.61881 0.140093 7.23158 0.52485L0.313145 7.39901C0.119946 7.57878 -0.000781429 7.83451 -0.000781449 8.11826C-0.00078147 8.40385 0.121506 8.66105 0.316891 8.84099L7.23158 15.7114C7.61881 16.0962 8.24664 16.0962 8.63388 15.7114Z" fill="#8C999B"/>
</svg>
